<svg xmlns="http://www.w3.org/2000/svg" xmlns:xlink="http://www.w3.org/1999/xlink" viewBox="0 0 128 128"><defs><style>.cls-1{isolation:isolate;}.cls-10,.cls-2,.cls-4,.cls-5,.cls-6{mix-blend-mode:multiply;}.cls-3{fill:url(#linear-gradient);}.cls-17,.cls-4,.cls-5{opacity:0.24;}.cls-4{fill:url(#linear-gradient-2);}.cls-5{fill:url(#linear-gradient-3);}.cls-6{opacity:0.5;fill:url(#linear-gradient-4);}.cls-7{fill:url(#linear-gradient-5);}.cls-8{fill:url(#linear-gradient-6);}.cls-9{fill:url(#linear-gradient-7);}.cls-10{opacity:0.36;fill:url(#linear-gradient-8);}.cls-11{fill:url(#linear-gradient-9);}.cls-12{fill:url(#linear-gradient-10);}.cls-13{fill:url(#linear-gradient-11);}.cls-14{fill:url(#linear-gradient-12);}.cls-15{fill:url(#linear-gradient-13);}.cls-16{fill:url(#linear-gradient-14);}</style><linearGradient id="linear-gradient" x1="14" y1="65" x2="114" y2="65" gradientUnits="userSpaceOnUse"><stop offset="0" stop-color="#9ea8b6"/><stop offset="1" stop-color="#d7dce2"/></linearGradient><linearGradient id="linear-gradient-2" x1="14" y1="87.5" x2="114" y2="87.5" gradientUnits="userSpaceOnUse"><stop offset="0" stop-color="#1c2a33"/><stop offset="1" stop-color="#435661"/></linearGradient><linearGradient id="linear-gradient-3" y1="44.5" x2="114" y2="44.5" xlink:href="#linear-gradient-2"/><linearGradient id="linear-gradient-4" x1="15.36" y1="96.5" x2="112.64" y2="96.5" xlink:href="#linear-gradient"/><linearGradient id="linear-gradient-5" x1="705" y1="-937" x2="705" y2="-927" gradientTransform="translate(-612 964)" xlink:href="#linear-gradient-2"/><linearGradient id="linear-gradient-6" x1="705" y1="-999" x2="705" y2="-985" gradientTransform="translate(-672 1024)" xlink:href="#linear-gradient"/><linearGradient id="linear-gradient-7" y1="66" x2="114" y2="66" xlink:href="#linear-gradient-2"/><linearGradient id="linear-gradient-8" x1="64" y1="94" x2="64" y2="40" gradientUnits="userSpaceOnUse"><stop offset="0" stop-color="#1f2535"/><stop offset="0.72" stop-color="#475166"/><stop offset="1" stop-color="#3c4557"/></linearGradient><linearGradient id="linear-gradient-9" x1="64" y1="91" x2="64" y2="41" gradientUnits="userSpaceOnUse"><stop offset="0" stop-color="#9ea8b6"/><stop offset="0.72" stop-color="#d7dce2"/><stop offset="1" stop-color="#adb8c7"/></linearGradient><linearGradient id="linear-gradient-10" y1="87" y2="45" xlink:href="#linear-gradient-8"/><linearGradient id="linear-gradient-11" x1="64" y1="85" x2="64" y2="47" gradientUnits="userSpaceOnUse"><stop offset="0" stop-color="#2b53cf"/><stop offset="1" stop-color="#9e74fe"/></linearGradient><linearGradient id="linear-gradient-12" x1="64.5" y1="54.87" x2="64.5" y2="85" gradientUnits="userSpaceOnUse"><stop offset="0" stop-color="#efed58"/><stop offset="1" stop-color="#f23e2e"/></linearGradient><linearGradient id="linear-gradient-13" x1="68" y1="85" x2="68" y2="65.62" gradientUnits="userSpaceOnUse"><stop offset="0" stop-color="#12adb4"/><stop offset="1" stop-color="#d1e946"/></linearGradient><linearGradient id="linear-gradient-14" x1="67.86" y1="44.41" x2="45.6" y2="66.66" gradientUnits="userSpaceOnUse"><stop offset="0" stop-color="#74e6f3"/><stop offset="1" stop-color="#466be3"/></linearGradient></defs><title>camera</title><g class="cls-1"><g id="icons" class="cls-2"><path class="cls-3" d="M114,37V93a4,4,0,0,1-4,4H18a4,4,0,0,1-4-4V37a4,4,0,0,1,4-4h92A4,4,0,0,1,114,37Z"/><rect class="cls-4" x="14" y="87" width="100" height="1"/><rect class="cls-5" x="14" y="44" width="100" height="1"/><path class="cls-6" d="M112.64,96A4,4,0,0,1,110,97H18a4,4,0,0,1-2.64-1Z"/><path class="cls-7" d="M92,27h1.5a.5.5,0,0,1,.5.5v9a.5.5,0,0,1-.5.5H92a0,0,0,0,1,0,0V27A0,0,0,0,1,92,27Z" transform="translate(61 125) rotate(-90)"/><path class="cls-8" d="M32,25h1.5a.5.5,0,0,1,.5.5v13a.5.5,0,0,1-.5.5H32a0,0,0,0,1,0,0V25A0,0,0,0,1,32,25Z" transform="translate(1 65) rotate(-90)"/><rect class="cls-9" x="14" y="47" width="100" height="38"/><ellipse class="cls-10" cx="64" cy="67" rx="26" ry="27"/><circle class="cls-11" cx="64" cy="66" r="25"/><circle class="cls-12" cx="64" cy="66" r="21"/><path class="cls-13" d="M83,66a19,19,0,0,1-37,6.13A18.55,18.55,0,0,1,45.1,68c-.06-.64-.1-1.3-.1-2q0-.41,0-.81A1,1,0,0,1,45,65,19,19,0,0,1,64,47a18.77,18.77,0,0,1,8.42,2,17,17,0,0,1,1.68.94,18.69,18.69,0,0,1,5.29,5A18.9,18.9,0,0,1,83,65.62C83,65.75,83,65.87,83,66Z"/><path class="cls-14" d="M83,66a19,19,0,0,1-37,6.13C56.89,66.47,79.25,81,79.4,54.87A18.9,18.9,0,0,1,83,65.62C83,65.75,83,65.87,83,66Z"/><path class="cls-15" d="M83,66A19,19,0,0,1,53,81.49c9.2-5.29,22.76.8,30-15.87C83,65.75,83,65.87,83,66Z"/><path class="cls-16" d="M72.42,49C63.34,54.41,56.87,70.54,45.1,66.16c0-.33-.05-.65-.07-1A1,1,0,0,1,45,65,19,19,0,0,1,64,47,18.77,18.77,0,0,1,72.42,49Z"/><circle class="cls-17" cx="45" cy="39" r="2"/></g></g></svg>